# xmcd
#
# Track frame offsets:
#  150
#  17671
#  31535
#  43773
#  60806
#  76714
#  91191
#  120450
#  143332
#  155660
#  172574
#
# Disc length: 2707 seconds
#
# Revision: 1
# Processed by: cddbd v1.5.1PL2 Copyright (c) Steve Scherf et al.
# Submitted via: Collectorz.com_Music_Collector 6.10
#
DISCID=650a910b
DTITLE=Mason Rack Band - Show Me Yours
DYEAR=2006
DGENRE=Blues
TTITLE0=Merry Go Round
TTITLE1=Seen Her B4
TTITLE2=Stop Joy
TTITLE3=Childhood
TTITLE4=Dad's Song
TTITLE5=Tom Tom Turnaround
TTITLE6=Do A Little (Voodoo Loop)
TTITLE7=Sick
TTITLE8=Tortured Soul
TTITLE9=Little Ben
TTITLE10=Dad's Song (Reprise)
EXTD=
EXTT0=
EXTT1=
EXTT2=
EXTT3=
EXTT4=
EXTT5=
EXTT6=
EXTT7=
EXTT8=
EXTT9=
EXTT10=
PLAYORDER=
